<?xml version="1.0" encoding="utf-8"?>
<!-- Generator: Adobe Illustrator 22.0.0, SVG Export Plug-In . SVG Version: 6.00 Build 0)  -->
<svg version="1.1" id="图层_1" xmlns="http://www.w3.org/2000/svg" xmlns:xlink="http://www.w3.org/1999/xlink" x="0px" y="0px"
	 viewBox="0 0 1024 1024" style="enable-background:new 0 0 1024 1024;" xml:space="preserve">
<style type="text/css">
	.st0{fill:#CCDAFE;}
	.st1{fill:#A8BEEF;}
	.st2{fill:url(#SVGID_1_);}
	.st3{fill:url(#SVGID_2_);}
	.st4{fill:#3B6CE4;}
	.st5{fill:url(#SVGID_3_);}
	.st6{fill:#FF7F2A;}
	.st7{fill:url(#SVGID_4_);}
	.st8{fill:#1E53A8;}
	.st9{fill:url(#SVGID_5_);}
	.st10{fill:#183F8C;}
	.st11{fill:#353535;}
	.st12{fill:#274DA0;}
	.st13{fill:#DBEEFE;}
	.st14{fill:#B9D8ED;}
	.st15{fill:#FDCACA;}
	.st16{fill:#63393F;}
</style>
<g>
	<g>
		<g>
			<polygon class="st0" points="163.2,716.3 163.2,510.5 245.7,510.5 245.7,362.3 386.3,362.3 386.3,716.3 			"/>
			<g>
				<rect x="259.7" y="386.8" class="st1" width="28.8" height="23"/>
				<rect x="302.8" y="386.8" class="st1" width="28.8" height="23"/>
				<rect x="346" y="386.8" class="st1" width="28.8" height="23"/>
				<rect x="259.7" y="422.7" class="st1" width="28.8" height="23"/>
				<rect x="302.8" y="422.7" class="st1" width="28.8" height="23"/>
				<rect x="346" y="422.7" class="st1" width="28.8" height="23"/>
				<rect x="259.7" y="458.7" class="st1" width="28.8" height="23"/>
				<rect x="302.8" y="458.7" class="st1" width="28.8" height="23"/>
				<rect x="346" y="458.7" class="st1" width="28.8" height="23"/>
				<rect x="259.7" y="494.7" class="st1" width="28.8" height="23"/>
				<rect x="302.8" y="494.7" class="st1" width="28.8" height="23"/>
				<rect x="346" y="494.7" class="st1" width="28.8" height="23"/>
				<rect x="259.7" y="530.7" class="st1" width="28.8" height="23"/>
				<rect x="216.5" y="530.7" class="st1" width="28.8" height="23"/>
				<rect x="173.3" y="530.7" class="st1" width="28.8" height="23"/>
				<rect x="302.8" y="530.7" class="st1" width="28.8" height="23"/>
				<rect x="346" y="530.7" class="st1" width="28.8" height="23"/>
				<rect x="259.7" y="566.6" class="st1" width="28.8" height="23"/>
				<rect x="216.5" y="566.6" class="st1" width="28.8" height="23"/>
				<rect x="173.3" y="566.6" class="st1" width="28.8" height="23"/>
				<rect x="302.8" y="566.6" class="st1" width="28.8" height="23"/>
				<rect x="346" y="566.6" class="st1" width="28.8" height="23"/>
				<rect x="259.7" y="602.6" class="st1" width="28.8" height="23"/>
				<rect x="216.5" y="602.6" class="st1" width="28.8" height="23"/>
				<rect x="173.3" y="602.6" class="st1" width="28.8" height="23"/>
				<rect x="302.8" y="602.6" class="st1" width="28.8" height="23"/>
				<rect x="346" y="602.6" class="st1" width="28.8" height="23"/>
				<rect x="259.7" y="638.6" class="st1" width="28.8" height="23"/>
				<rect x="216.5" y="638.6" class="st1" width="28.8" height="23"/>
				<rect x="173.3" y="638.6" class="st1" width="28.8" height="23"/>
				<rect x="302.8" y="638.6" class="st1" width="28.8" height="23"/>
				<rect x="346" y="638.6" class="st1" width="28.8" height="23"/>
			</g>
		</g>
		<g>
			<polygon class="st0" points="635.3,713.4 635.3,583.9 698.6,583.9 698.6,434.3 795,434.3 795,504.8 851.1,504.8 851.1,713.4 			
				"/>
			<g>
				<rect x="713" y="453" class="st1" width="28.8" height="23"/>
				<rect x="753.3" y="453" class="st1" width="28.8" height="23"/>
				<rect x="713" y="596.9" class="st1" width="28.8" height="23"/>
				<rect x="672.7" y="596.9" class="st1" width="28.8" height="23"/>
				<rect x="672.7" y="632.8" class="st1" width="28.8" height="23"/>
				<rect x="753.3" y="596.9" class="st1" width="28.8" height="23"/>
				<rect x="713" y="488.9" class="st1" width="28.8" height="23"/>
				<rect x="753.3" y="488.9" class="st1" width="28.8" height="23"/>
				<rect x="713" y="524.9" class="st1" width="28.8" height="23"/>
				<rect x="753.3" y="524.9" class="st1" width="28.8" height="23"/>
				<rect x="793.6" y="524.9" class="st1" width="28.8" height="23"/>
				<rect x="793.6" y="560.9" class="st1" width="28.8" height="23"/>
				<rect x="793.6" y="596.9" class="st1" width="28.8" height="23"/>
				<rect x="793.6" y="632.8" class="st1" width="28.8" height="23"/>
				<rect x="713" y="560.9" class="st1" width="28.8" height="23"/>
				<rect x="753.3" y="560.9" class="st1" width="28.8" height="23"/>
				<rect x="713" y="632.8" class="st1" width="28.8" height="23"/>
				<rect x="753.3" y="632.8" class="st1" width="28.8" height="23"/>
			</g>
		</g>
		<g>
			<g>
				<linearGradient id="SVGID_1_" gradientUnits="userSpaceOnUse" x1="504.0129" y1="621.4295" x2="512.3701" y2="753.1285">
					<stop  offset="0" style="stop-color:#91B3FF"/>
					<stop  offset="0.4022" style="stop-color:#6791F2"/>
					<stop  offset="0.7939" style="stop-color:#3B6CE4"/>
				</linearGradient>
				<path class="st2" d="M92.7,750.9c0,0,164.1-131,411.6-131c233.1,0,427.4,131,427.4,131s-65.5-24.7-204.4-27.3
					C651.1,722.1,595,748,501.4,748c-87.8,0-149.8-12.1-243.2-15.8C171.7,728.7,92.7,750.9,92.7,750.9z"/>
				<linearGradient id="SVGID_2_" gradientUnits="userSpaceOnUse" x1="519.7179" y1="618.4447" x2="523.7009" y2="681.212">
					<stop  offset="0" style="stop-color:#91B3FF"/>
					<stop  offset="0.2484" style="stop-color:#6795EC"/>
					<stop  offset="0.7939" style="stop-color:#004CBF"/>
				</linearGradient>
				<path class="st3" d="M429.4,623.9c-5.5,3.8-8.6,8.1-8.6,12.5c0,17.1,44.8,30.9,100,30.9s100-13.9,100-30.9
					c0-2.2-0.8-4.4-2.3-6.6c-36.5-6.2-74.8-10-114.3-10C478.4,619.9,453.4,621.3,429.4,623.9z"/>
				
					<ellipse transform="matrix(0.9596 -0.2814 0.2814 0.9596 -180.4184 124.2289)" class="st4" cx="342.4" cy="690.4" rx="46.8" ry="15.8"/>
				
					<ellipse transform="matrix(0.2923 -0.9563 0.9563 0.2923 -284.6015 1037.9835)" class="st4" cx="559" cy="711.3" rx="12.2" ry="30.2"/>
			</g>
			<g>
				<g>
					<linearGradient id="SVGID_3_" gradientUnits="userSpaceOnUse" x1="744.1927" y1="649.2149" x2="707.2399" y2="598.9297">
						<stop  offset="0" style="stop-color:#EFBB81"/>
						<stop  offset="0.5011" style="stop-color:#F79E57"/>
						<stop  offset="1" style="stop-color:#FF7F2A"/>
					</linearGradient>
					<path class="st5" d="M750,627.9c4.9-5.1,7.4-11.8,6.4-18.6c-1.2-8.2-7.1-14.6-15.2-17.8c0.2-1.8,0.2-3.7-0.2-5.6
						c-1.9-9.1-10.8-15-19.8-13.1c-9,1.9-14.8,10.8-12.9,19.9c0.2,1.2,0.6,2.3,1.1,3.3c-6.9,5.4-10.9,13.4-9.7,21.6
						c0.6,3.8,2.1,7.2,4.5,10.1c-5.2,3.4-8.4,8-8.4,13c0,10.5,14,19,31.2,19s31.2-8.5,31.2-19C758.1,635.7,755,631.2,750,627.9z"/>
					<g>
						<g>
							<path class="st6" d="M726.3,686.2L726.3,686.2c-0.9-0.5-1.5-2.5-1.2-4.3c4.4-35.6,1.3-54.8-0.2-61.3
								c-0.4-1.6-0.1-3.4,0.6-4.4l0,0c0.9-1.3,2.1-0.7,2.6,1.4c1.8,8,5.1,28.9,0.4,66.1C728.2,685.6,727.2,686.7,726.3,686.2z"/>
						</g>
					</g>
				</g>
				<g>
					<linearGradient id="SVGID_4_" gradientUnits="userSpaceOnUse" x1="802.523" y1="686.744" x2="781.4401" y2="658.0544">
						<stop  offset="0" style="stop-color:#EFBB81"/>
						<stop  offset="0.5011" style="stop-color:#F79E57"/>
						<stop  offset="1" style="stop-color:#FF7F2A"/>
					</linearGradient>
					<path class="st7" d="M805.8,674.6c2.8-2.9,4.2-6.7,3.7-10.6c-0.7-4.7-4.1-8.3-8.7-10.2c0.1-1,0.1-2.1-0.1-3.2
						c-1.1-5.2-6.2-8.5-11.3-7.5c-5.2,1.1-8.4,6.2-7.3,11.4c0.1,0.7,0.3,1.3,0.6,1.9c-4,3.1-6.2,7.6-5.5,12.3
						c0.3,2.2,1.2,4.1,2.6,5.8c-3,1.9-4.8,4.5-4.8,7.4c0,6,8,10.8,17.8,10.8s17.8-4.9,17.8-10.8
						C810.5,679.1,808.7,676.5,805.8,674.6z"/>
					<g>
						<g>
							<path class="st6" d="M792.3,707.8L792.3,707.8c-0.5-0.3-0.8-1.4-0.7-2.5c2.5-20.3,0.8-31.2-0.1-35c-0.2-0.9-0.1-1.9,0.3-2.5
								l0,0c0.5-0.8,1.2-0.4,1.5,0.8c1,4.5,2.9,16.5,0.2,37.7C793.4,707.5,792.9,708.2,792.3,707.8z"/>
						</g>
					</g>
				</g>
			</g>
		</g>
	</g>
	<path class="st8" d="M516.4,272.6l75.8,5.5c2.7,0.2,4.9,2.2,5.2,4.9c1.3,8.6,5.7,27.9,21,42.6c19,18.2,43.1,18.2,43.1,18.2
		s12.4,136.1-21.3,192.5C608.9,588.8,524.2,632.4,513,638c-0.8,0.4-1.7,0.4-2.4,0c-10.9-5.5-91.1-47.9-125.5-103.2
		c-34.2-55-22.5-191.1-22.5-191.1s37.8-6.2,48.8-20.6c11.9-15.6,16.4-33.1,17.9-41.1c0.5-2.5,2.6-4.4,5.2-4.6l71.2-4.8
		C509.2,272.3,512.8,272.3,516.4,272.6z"/>
	<linearGradient id="SVGID_5_" gradientUnits="userSpaceOnUse" x1="409.8831" y1="343.0361" x2="606.6173" y2="517.9087">
		<stop  offset="0" style="stop-color:#91B3FF"/>
		<stop  offset="0.5066" style="stop-color:#6791F2"/>
		<stop  offset="1" style="stop-color:#3B6CE4"/>
	</linearGradient>
	<path class="st9" d="M511.9,616c-22.4-12.3-82.7-48.2-109.8-91.8c-22.3-35.8-22.8-120.3-20.5-164.2c15.2-4,35.6-11.5,45.8-24.9
		c10.2-13.4,15.9-27.7,19-38.6l60.7-4.1c1.3-0.1,2.6-0.1,3.9-0.1c1.4,0,2.8,0,4.1,0.1l65,4.7c3.3,12.6,10.3,29,24.7,42.7
		c12.8,12.2,27,18.1,38.1,21c2.5,44.2,2.2,128.3-19.7,164.9C601.6,562,546.4,597.7,511.9,616z"/>
	<g>
		<path class="st8" d="M487.5,392c0-13.7,11.1-24.7,24.7-24.7c13.7,0,24.7,11.1,24.7,24.7V409h15.5V392c0-22.2-18-40.2-40.2-40.2
			c-22.2,0-40.2,18-40.2,40.2V409h15.5V392z"/>
		<path class="st8" d="M561.3,416.1h-98.2c-3.4,0-6.2,2.8-6.2,6.2v74.2c0,3.4,2.8,6.2,6.2,6.2h98.2c3.4,0,6.2-2.8,6.2-6.2v-74.2
			C567.5,418.9,564.8,416.1,561.3,416.1z M518.4,456.2v22.5H506v-22.5c-1.9-1.7-3.1-4.1-3.1-6.9c0-5.1,4.2-9.3,9.3-9.3
			c5.1,0,9.3,4.2,9.3,9.3C521.5,452.1,520.3,454.5,518.4,456.2z"/>
	</g>
	<g>
		<path class="st10" d="M364.4,645.8l18-1.1c0,0,14.9,19.1-8.5,27.6c-26.5,9.6-55.2-3.2-60.5,3.2c-5.3,6.4,11.7,45.7,11.7,45.7
			l-9.6,7.4c0,0-27.1-45.5-24.4-56.3c2.1-8.5,6.4-12.7,14.9-13.8C314.5,657.5,364.4,645.8,364.4,645.8z"/>
		<path class="st11" d="M324.7,719.3c0,0,8.2,2.4,7.8,5.9c-0.4,3.5-19.3,21.8-19.3,21.8s-5.2-3.7-3.8-7.1c1.4-3.4,6.6-10.7,6.6-10.7
			l-1.8-3.1L324.7,719.3z"/>
		<path class="st12" d="M380.3,653.2l18-1.1c0,0,14.2,21.8-9.2,30.3c-26.5,9.6-54.5-5.8-59.8,0.5s11.7,45.7,11.7,45.7l-9.6,7.4
			c0,0-24.2-45.2-24.4-56.3c-0.2-8.5,6.4-12.7,14.9-13.8C330.4,664.9,380.3,653.2,380.3,653.2z"/>
		<path class="st13" d="M342.8,592.2c-12.3,8.1-28.7,59.5-24,62.1c19.1,10.6,76.7,10.6,83.9,0c10.6-15.7,0-55.2-13.8-60.5
			C375,588.5,351.1,586.7,342.8,592.2z"/>
		<path class="st14" d="M385.3,602c0,0,8.4,5.3,11,16.9c2.9,12.5-31.4,27.9-31.4,27.9h-16.4c0,0,29.6-11,42.5-22.4
			C398.4,617.8,385.3,602,385.3,602z"/>
		<path class="st14" d="M377.2,590.6c0,0-2,4.9-3.8,7.1c-1.8,2.1-6.1,4.4-6.1,4.4l-7-0.8c0,0-1.3-4.1-1.4-6.4
			c-0.1-2.2,1.4-5.9,1.4-5.9s4.7,0.2,8.1,0.4C372.2,589.5,377.2,590.6,377.2,590.6z"/>
		<path class="st10" d="M365.3,594.5c0,0,4.3,3.7,2.2,8.2c-1.7,3.6-3,3.5-3,3.5l-2.4,24.8l-5.8,5.7l-3.9-7.8l8.8-23.2
			C361.2,605.6,357.1,598.2,365.3,594.5z"/>
		<polygon class="st14" points="339.1,625.5 346.5,615.5 343.8,629.7 		"/>
		<polygon class="st11" points="285.1,616.1 347.3,626.5 357.3,668.1 293.6,657.5 		"/>
		<path class="st15" d="M361.6,582.6l13.4-2.3l-1,9.8c0,0-4.8,4.8-8.7,4.4c-4.1-0.4-4.2-5.8-4.2-5.8L361.6,582.6z"/>
		<path class="st11" d="M339.3,724.3c0,0,8.2,2.4,7.8,5.9c-0.4,3.5-19.3,21.8-19.3,21.8s-5.2-3.7-3.8-7.1c1.4-3.4,6.6-10.7,6.6-10.7
			l-1.8-3.1L339.3,724.3z"/>
		<path class="st16" d="M352.8,569.1c0,0-4.6-1.8-3.8-12s0.6-12.2,6.3-15.3c8.4-4.5,12.2-0.9,12.9-1.6c0.7-0.7,11.6-10.1,17-1.2
			c5.4,8.9,0,27.7-3.9,29.2C374,571,352.8,569.1,352.8,569.1z"/>
		<path class="st15" d="M354.5,553.5c0,0-0.2,8.8,0,11.6c0,0-4.9,0.5-4.6,4.4c0.4,4,2.7,5.9,4.6,5.7c0,0,0.5,5.9,4.7,9
			c3.1,2.3,5,2.9,7.7,3.1c3.7,0.3,8.2-0.9,11.4-5.7c0.9-1.4,1.2-4.6,1.2-4.6s2.8,0.7,3.7-4.2c0.9-4.9-1.9-4.7-1.9-4.7
			s2.4-12.8,0.8-16.4c-1.4-3.3-3.8-7.8-11.6-7.8S356.6,544.3,354.5,553.5z"/>
		<path class="st16" d="M351.3,565.8c0,0,3.5,6.9,4.5,1c0.8-4.9,2.8-8.7,1.2-9.7s4.6-5.1,6.6-4c1.9,1.1,4.6,0.6,5.8,4.3
			c1.1,3.7,5.3,0.6,6.5,2.3c1.6,2.4,0.4,2.5,0.9,5.7c0.5,3.2,4.2,1,3.4,5.1c-0.2,1.3,5.2-8.6,5.2-8.6l-1.8-19.3l-19.7-2.4l-11.4,7.1
			L351.3,565.8z"/>
	</g>
</g>
</svg>
